<svg width="80" height="40" viewBox="0 0 80 40" fill="none" xmlns="http://www.w3.org/2000/svg">
<path d="M18.665 9.94631C18.521 11.3703 18.177 12.1303 16.337 12.1863C15.057 12.1863 13.609 12.2343 12.233 12.2343C7.04895 12.2343 6.32895 12.1863 6.32895 10.8823C6.32895 10.6103 6.38495 10.0823 6.38495 9.94631H2.88895C2.82457 9.94739 2.76063 9.93551 2.70093 9.91137C2.64123 9.88723 2.58701 9.85132 2.54147 9.80579C2.49594 9.76026 2.46004 9.70603 2.43589 9.64633C2.41175 9.58664 2.39987 9.52269 2.40095 9.45831C2.39657 9.39158 2.40594 9.32467 2.4285 9.26172C2.45105 9.19877 2.4863 9.14112 2.53206 9.09236C2.57782 9.0436 2.63311 9.00477 2.6945 8.97827C2.7559 8.95177 2.82208 8.93817 2.88895 8.93831H6.50495C6.67295 7.65831 7.01695 6.87431 8.90495 6.82631C10.057 6.77831 11.433 6.77831 12.833 6.77831C14.233 6.77831 15.713 6.77831 17.041 6.82631C18.369 6.87431 18.833 7.44231 18.833 8.17831V8.29831C18.833 8.47431 18.833 8.69031 18.785 8.93831H22.201C22.2667 8.93474 22.3324 8.94519 22.3937 8.96897C22.4551 8.99274 22.5107 9.0293 22.5569 9.07621C22.603 9.12312 22.6387 9.17931 22.6614 9.24105C22.6842 9.30279 22.6936 9.36867 22.689 9.43431C22.696 9.50122 22.6885 9.56888 22.6668 9.63258C22.6451 9.69627 22.6098 9.75449 22.5634 9.8032C22.517 9.85191 22.4605 9.88994 22.3979 9.91465C22.3353 9.93936 22.2681 9.95016 22.201 9.94631H18.665ZM3.38495 24.0983C3.29367 24.1095 3.20104 24.1014 3.11308 24.0746C3.02513 24.0477 2.94381 24.0026 2.87441 23.9422C2.805 23.8819 2.74906 23.8076 2.71022 23.7242C2.67138 23.6409 2.65051 23.5503 2.64895 23.4583C2.64733 23.3732 2.66385 23.2886 2.69742 23.2104C2.73099 23.1321 2.78084 23.0619 2.84365 23.0044C2.90646 22.9468 2.9808 22.9034 3.06171 22.8768C3.14263 22.8502 3.22828 22.8412 3.31295 22.8503C5.48187 22.7989 7.61265 22.2689 9.55295 21.2983C9.62852 21.2545 9.71365 21.2297 9.80095 21.2263C9.95792 21.2424 10.103 21.3174 10.2069 21.4361C10.3108 21.5549 10.3658 21.7086 10.361 21.8663C10.36 21.976 10.327 22.0829 10.2658 22.1739C10.2046 22.265 10.1181 22.336 10.017 22.3783C7.92584 23.3406 5.68016 23.923 3.38495 24.0983ZM20.609 6.80231C20.609 5.81831 19.873 5.54631 18.865 5.52231C17.393 5.52231 15.497 5.52231 13.585 5.52231C10.953 5.52231 8.22495 5.52231 6.32895 5.52231C5.03295 5.52231 4.51295 6.11431 4.48895 6.82631V7.78631C4.48692 7.87071 4.46801 7.95385 4.43331 8.03082C4.39862 8.10779 4.34886 8.17703 4.28697 8.23445C4.22507 8.29187 4.1523 8.33631 4.07295 8.36514C3.9936 8.39397 3.90927 8.40661 3.82495 8.40231C3.20095 8.40231 3.13695 8.05831 3.13695 7.12231C3.13695 6.04231 3.25695 4.49031 5.76895 4.46631C7.80895 4.46631 9.87295 4.46631 11.913 4.46631V3.04231C11.9148 2.95259 11.9351 2.86421 11.9724 2.78264C12.0098 2.70106 12.0635 2.62802 12.1303 2.56803C12.197 2.50804 12.2753 2.46238 12.3604 2.43388C12.4455 2.40537 12.5355 2.39463 12.625 2.40231C12.7127 2.39688 12.8006 2.40935 12.8834 2.43898C12.9661 2.4686 13.042 2.51475 13.1063 2.57461C13.1707 2.63448 13.2222 2.70682 13.2577 2.78722C13.2932 2.86763 13.312 2.95441 13.313 3.04231V4.44231C15.305 4.44231 17.313 4.44231 19.281 4.44231C20.881 4.44231 21.937 5.15431 21.961 6.43431V7.81031C21.961 7.89641 21.9437 7.98165 21.91 8.0609C21.8764 8.14016 21.8271 8.2118 21.7651 8.27156C21.7031 8.33131 21.6297 8.37794 21.5492 8.40866C21.4688 8.43937 21.383 8.45354 21.297 8.45031C21.2124 8.45575 21.1276 8.4439 21.0477 8.41549C20.9679 8.38708 20.8947 8.3427 20.8325 8.28506C20.7704 8.22741 20.7207 8.15772 20.6863 8.08022C20.652 8.00273 20.6339 7.91906 20.633 7.83431L20.609 6.80231ZM16.849 21.0263C15.425 21.0263 13.953 21.0743 12.529 21.0743C11.105 21.0743 9.72095 21.0743 8.47295 21.0263C6.87295 20.9783 6.16095 20.2263 6.11295 19.1623C6.11295 18.6183 6.06495 17.9783 6.06495 17.3703C6.06495 16.5703 6.06495 15.8183 6.11295 15.2023C6.11295 14.2743 6.84895 13.4103 8.42495 13.3863C9.42495 13.3863 10.457 13.3863 11.545 13.3863C13.265 13.3863 15.057 13.3863 16.969 13.4343C18.345 13.4343 19.089 14.2343 19.137 15.1063C19.185 15.7223 19.209 16.4823 19.209 17.2423C19.209 18.0023 19.209 18.5943 19.137 19.1863C19.065 20.1703 18.321 20.9783 16.849 21.0263ZM7.24895 16.4343V17.8583H17.953V16.4343H7.24895ZM17.889 15.4743C17.841 14.6743 17.473 14.2983 16.465 14.2743C15.089 14.2743 13.345 14.2263 11.665 14.2263C10.633 14.2263 9.62495 14.2263 8.73695 14.2263C7.84895 14.2263 7.33695 14.7383 7.31295 15.4503V15.6503H17.905L17.889 15.4743ZM17.889 18.6743H7.28895V18.9463C7.28895 19.8343 7.85695 20.1543 8.76895 20.1783C9.87295 20.1783 11.225 20.2263 12.577 20.2263C13.929 20.2263 15.329 20.2263 16.481 20.1783C17.345 20.1783 17.833 19.7863 17.881 18.9703L17.889 18.6743ZM11.745 9.87431H7.58495C7.58495 10.1383 7.51295 10.4103 7.51295 10.6103V10.6823C7.51295 11.3703 7.65695 11.4423 11.593 11.4423L11.745 9.87431ZM12.001 7.58631C10.873 7.58631 9.79295 7.58631 8.97695 7.58631C8.00095 7.63431 7.83295 8.02631 7.68095 9.05831H11.865L12.001 7.58631ZM12.961 9.82631L12.761 11.4263C13.897 11.4263 15.025 11.4263 15.961 11.3783C17.185 11.3303 17.257 10.9623 17.385 9.85831L12.961 9.82631ZM17.481 9.02631C17.5325 8.80992 17.5726 8.59094 17.601 8.37031C17.601 7.88231 17.385 7.63431 16.545 7.57031C15.705 7.50631 14.481 7.57031 13.345 7.57031L13.169 9.04231L17.481 9.02631ZM21.601 23.9063C19.3196 23.775 17.0845 23.2074 15.017 22.2343C14.9164 22.1957 14.8299 22.1278 14.7685 22.0393C14.7071 21.9509 14.6738 21.846 14.673 21.7383C14.6708 21.6599 14.6843 21.5819 14.7126 21.5087C14.7409 21.4355 14.7834 21.3687 14.8378 21.3122C14.8921 21.2556 14.9572 21.2104 15.0291 21.1792C15.1011 21.1479 15.1785 21.1313 15.257 21.1303C15.3519 21.1336 15.4448 21.1582 15.529 21.2023C17.4732 22.0913 19.5832 22.5602 21.721 22.5783C21.806 22.5682 21.8921 22.5761 21.9739 22.6016C22.0556 22.627 22.131 22.6695 22.1952 22.7261C22.2594 22.7828 22.3109 22.8523 22.3464 22.9303C22.3818 23.0082 22.4004 23.0927 22.401 23.1783C22.4015 23.2803 22.3805 23.3812 22.3395 23.4746C22.2985 23.568 22.2384 23.6517 22.1629 23.7203C22.0875 23.7889 21.9985 23.841 21.9017 23.873C21.8049 23.9051 21.7024 23.9164 21.601 23.9063Z" fill="#C55ED5"/>
<path d="M44.801 8.13048C46.785 8.13048 47.921 9.03448 48.001 10.6345C48.001 11.3465 48.049 12.1065 48.049 12.8985C48.049 17.4185 47.657 23.4105 41.953 23.4105C41.0143 23.4035 40.0808 23.2717 39.177 23.0185C39.0327 22.9789 38.9061 22.8918 38.8175 22.7713C38.7289 22.6508 38.6836 22.5039 38.689 22.3545C38.6823 22.2665 38.694 22.1781 38.7232 22.0948C38.7524 22.0115 38.7985 21.9352 38.8586 21.8706C38.9187 21.806 38.9915 21.7545 39.0724 21.7194C39.1534 21.6842 39.2407 21.6662 39.329 21.6665C39.4086 21.6558 39.4893 21.6558 39.569 21.6665C40.3261 21.9 41.1127 22.0239 41.905 22.0345C44.169 22.0345 46.705 21.0025 46.705 13.2345C46.705 12.3705 46.657 11.5625 46.633 10.8345C46.585 9.87448 45.945 9.35448 44.689 9.33048H39.729C39.041 15.6505 36.977 21.0505 30.785 23.6825C30.6679 23.7295 30.5431 23.7539 30.417 23.7545C30.2218 23.7545 30.0346 23.6769 29.8965 23.5389C29.7585 23.4009 29.681 23.2137 29.681 23.0185C29.6792 22.8823 29.721 22.7492 29.8001 22.6384C29.8792 22.5277 29.9916 22.445 30.121 22.4025C36.001 19.9785 37.785 14.9625 38.353 9.35448C35.505 9.35448 32.577 9.40248 31.201 9.40248C31.1194 9.40633 31.038 9.39257 30.9623 9.36212C30.8865 9.33167 30.8182 9.28526 30.7621 9.22604C30.7059 9.16682 30.6631 9.09619 30.6367 9.01895C30.6103 8.94172 30.6008 8.8597 30.609 8.77848C30.6033 8.69502 30.6152 8.61131 30.6439 8.53272C30.6725 8.45414 30.7173 8.38241 30.7753 8.32214C30.8333 8.26188 30.9033 8.21441 30.9807 8.18278C31.0582 8.15115 31.1413 8.13606 31.225 8.13848C32.505 8.13848 35.505 8.13848 38.425 8.13848C38.521 6.65848 38.577 5.13848 38.601 3.64248C38.5995 3.55074 38.6173 3.45971 38.6532 3.37528C38.6891 3.29085 38.7424 3.2149 38.8095 3.15232C38.8766 3.08975 38.956 3.04194 39.0428 3.012C39.1295 2.98205 39.2215 2.97063 39.313 2.97848C39.401 2.97186 39.4894 2.98351 39.5726 3.01269C39.6559 3.04188 39.7323 3.08797 39.7969 3.14807C39.8615 3.20818 39.913 3.28099 39.9481 3.36194C39.9832 3.44289 40.0012 3.53023 40.001 3.61848C40.001 5.16248 39.929 6.65848 39.801 8.13848L44.801 8.13048Z" fill="#C55ED5"/>
<path d="M59.1209 11.9785C58.1868 11.3055 57.1491 10.7894 56.0489 10.4505C55.9532 10.425 55.8692 10.3673 55.8109 10.2872C55.7526 10.2071 55.7237 10.1094 55.7289 10.0105C55.7288 9.92442 55.7461 9.83919 55.7798 9.75994C55.8134 9.68068 55.8627 9.60903 55.9247 9.54928C55.9867 9.48952 56.0601 9.44289 56.1406 9.41218C56.221 9.38146 56.3068 9.3673 56.3929 9.37053C57.6169 9.61812 58.7838 10.093 59.8329 10.7705C59.9366 10.8425 60.0219 10.938 60.0817 11.0492C60.1415 11.1605 60.1741 11.2843 60.1769 11.4105C60.1835 11.5891 60.1205 11.7632 60.001 11.8961C59.8816 12.029 59.7151 12.1102 59.5369 12.1225C59.3875 12.1144 59.2433 12.0645 59.1209 11.9785ZM56.7209 23.4265C56.539 23.4244 56.3652 23.3513 56.2367 23.2227C56.1081 23.0941 56.0349 22.9204 56.0329 22.7385C56.0368 22.5883 56.0871 22.443 56.1769 22.3225C57.666 20.4068 58.7987 18.239 59.5209 15.9225C59.5656 15.8047 59.6458 15.7037 59.7504 15.6335C59.855 15.5633 59.9789 15.5273 60.1049 15.5305C60.1892 15.5262 60.2735 15.5389 60.3529 15.5677C60.4322 15.5965 60.505 15.641 60.5669 15.6984C60.6288 15.7558 60.6785 15.825 60.7132 15.902C60.7479 15.979 60.7668 16.0621 60.7689 16.1465C60.0417 18.6266 58.9062 20.968 57.4089 23.0745C57.3273 23.1812 57.2218 23.2672 57.1009 23.3255C56.98 23.3839 56.8471 23.413 56.7129 23.4105L56.7209 23.4265ZM60.4249 6.62653C59.5998 5.7862 58.6662 5.05978 57.6489 4.46653C57.5801 4.4316 57.5218 4.37921 57.4796 4.31463C57.4375 4.25004 57.4131 4.17552 57.4089 4.09853C57.4263 3.9265 57.5057 3.76669 57.6323 3.64892C57.7589 3.53115 57.924 3.46348 58.0969 3.45853C58.5609 3.45853 61.5849 5.25053 61.5849 6.09053C61.5811 6.28045 61.5056 6.46191 61.3735 6.59844C61.2414 6.73497 61.0626 6.81646 60.8729 6.82653C60.7847 6.82715 60.6976 6.80723 60.6184 6.76835C60.5393 6.72947 60.4703 6.6727 60.4169 6.60253L60.4249 6.62653ZM67.6809 10.5625C66.5929 10.7305 65.5609 10.8585 64.7049 10.9545C64.7049 15.4025 64.0409 20.2905 61.2889 23.2425C61.2093 23.3363 61.1115 23.4129 61.0016 23.4679C60.8916 23.5229 60.7716 23.5551 60.6489 23.5625C60.4767 23.5692 60.3086 23.5087 60.1802 23.3937C60.0519 23.2788 59.9732 23.1184 59.9609 22.9465C59.9603 22.8631 59.9779 22.7805 60.0125 22.7045C60.047 22.6286 60.0976 22.561 60.1609 22.5065C62.8889 19.4825 63.4489 15.3065 63.4489 11.4665C63.4489 10.2425 63.3769 9.06653 63.3289 7.95453V7.65853C63.3289 6.13853 64.1289 5.40253 65.6649 5.17853C68.3142 4.83936 70.9205 4.22264 73.4409 3.33853C73.5297 3.3136 73.6208 3.29752 73.7129 3.29053C73.799 3.29047 73.8842 3.30778 73.9634 3.34144C74.0427 3.37509 74.1143 3.42439 74.1741 3.48638C74.2339 3.54838 74.2805 3.62179 74.3112 3.70223C74.3419 3.78267 74.3561 3.86848 74.3529 3.95453C74.3567 4.09019 74.3157 4.22333 74.2361 4.33327C74.1566 4.44322 74.0429 4.52381 73.9129 4.56253C71.3541 5.38321 68.7318 5.99061 66.0729 6.37853C64.9449 6.52253 64.6249 7.06653 64.6249 7.89853C64.6249 7.94653 64.6249 7.94653 64.6969 9.84253C68.1791 9.47867 71.6089 8.72185 74.9209 7.58653C74.9987 7.56128 75.0793 7.54517 75.1609 7.53853C75.2408 7.5415 75.3193 7.56064 75.3916 7.59477C75.4639 7.62891 75.5285 7.67735 75.5816 7.73716C75.6347 7.79697 75.6751 7.86691 75.7004 7.94277C75.7257 8.01863 75.7354 8.09883 75.7289 8.17853C75.7289 8.71453 75.6089 8.81853 72.1929 9.62653C72.2088 11.0954 72.3561 12.5599 72.6329 14.0025C73.7846 13.4183 74.8869 12.7414 75.9289 11.9785C76.0288 11.9036 76.1482 11.8591 76.2729 11.8505C76.4456 11.8585 76.6091 11.9312 76.7307 12.0543C76.8522 12.1773 76.923 12.3417 76.9289 12.5145C76.9207 12.6227 76.8884 12.7277 76.8344 12.8218C76.7805 12.916 76.7061 12.9968 76.6169 13.0585C75.4305 13.8419 74.1713 14.509 72.8569 15.0505C73.394 17.8362 74.8882 20.3463 77.0809 22.1465C77.1741 22.2086 77.2501 22.2932 77.3019 22.3925C77.3536 22.4918 77.3794 22.6026 77.3769 22.7145C77.3731 22.9045 77.2976 23.0859 77.1655 23.2224C77.0334 23.359 76.8546 23.4405 76.6649 23.4505C75.7289 23.4505 71.2569 19.0505 71.0649 9.91453C70.3289 10.0585 69.6169 10.2345 68.8809 10.3545L68.9289 23.3065C68.9325 23.3936 68.9177 23.4805 68.8853 23.5614C68.8529 23.6423 68.8037 23.7155 68.7409 23.776C68.6781 23.8365 68.6032 23.8829 68.5212 23.9123C68.4391 23.9417 68.3518 23.9534 68.2649 23.9465C68.1782 23.9521 68.0914 23.9396 68.0099 23.9097C67.9284 23.8799 67.8541 23.8333 67.7916 23.7731C67.7291 23.7129 67.6799 23.6403 67.647 23.5599C67.6142 23.4796 67.5985 23.3933 67.6009 23.3065L67.6809 10.5625Z" fill="#C55ED5"/>
<path d="M5.21694 36.8982C4.6014 36.9 3.99002 36.7972 3.40894 36.5942L3.51294 36.1302C4.07046 36.3 4.6501 36.3863 5.23294 36.3862C6.32894 36.3862 6.62494 36.0662 6.62494 35.2502C6.62494 34.2582 6.62494 34.1542 5.19294 33.8262C3.64894 33.4662 3.47294 33.1942 3.47294 31.9062C3.47294 30.8582 3.85694 30.3062 5.46494 30.3062C6.021 30.3111 6.57439 30.3836 7.11294 30.5222L7.04894 31.0022C6.52368 30.883 5.98747 30.8186 5.44894 30.8102C4.18494 30.8102 4.00894 31.1222 4.00894 31.9142C4.00894 32.9542 4.00894 33.0022 5.38494 33.3382C7.06493 33.7622 7.16093 34.0022 7.16093 35.2102C7.20093 36.2662 6.83294 36.8982 5.21694 36.8982Z" fill="#C55ED5"/>
<path d="M18.1929 36.7784V33.7704H15.1049V36.7784H14.5369V30.3784H15.1049V33.2584H18.1929V30.3784H18.7609V36.7784H18.1929Z" fill="#C55ED5"/>
<path d="M26.8649 36.7784H26.2969V30.3784H26.8649V36.7784Z" fill="#C55ED5"/>
<path d="M34.9609 36.2904H37.8409V36.7784H34.4009V30.3784H34.9609V36.2904Z" fill="#C55ED5"/>
<path d="M45.5128 36.7784H44.9448V30.3784H45.5128V36.7784Z" fill="#C55ED5"/>
<path d="M53.049 30.3784H55.201C56.489 30.3784 56.961 30.9624 56.961 31.8504V32.8504C56.961 33.7464 56.489 34.3304 55.201 34.3304H53.601V36.7784H53.033L53.049 30.3784ZM55.233 30.8824H53.601V33.8184H55.201C56.001 33.8184 56.377 33.5544 56.377 32.8504V31.8824C56.409 31.1784 56.001 30.9144 55.201 30.9144L55.233 30.8824Z" fill="#C55ED5"/>
<path d="M67.6329 35.1224H64.6569L64.0569 36.7784H63.5049L65.7289 30.3784H66.5289L68.8009 36.7784H68.2409L67.6329 35.1224ZM64.8009 34.6344H67.4329L66.1209 30.7304L64.8009 34.6344Z" fill="#C55ED5"/>
<path d="M76.369 36.7784H75.801V30.3784H76.369V36.7784Z" fill="#C55ED5"/>
</svg>
